<svg width="219" height="219" viewBox="0 0 219 219" fill="none" xmlns="http://www.w3.org/2000/svg">
<path d="M109.5 44.9667C121.249 44.9667 130.808 35.4077 130.808 23.6583C130.808 11.9089 121.249 2.34985 109.5 2.34985C97.7506 2.34985 88.1916 11.9089 88.1916 23.6583C88.1916 35.4077 97.7506 44.9667 109.5 44.9667ZM109.5 13.0039C115.375 13.0039 120.154 17.7834 120.154 23.6583C120.154 29.5332 115.375 34.3127 109.5 34.3127C103.625 34.3127 98.8456 29.5332 98.8456 23.6583C98.8456 17.7834 103.625 13.0039 109.5 13.0039Z" fill="#EE685C"/>
<path d="M77.5371 91.5795C80.4786 91.5795 82.8641 89.1945 82.8641 86.2525C82.8641 71.5654 94.8129 59.6167 109.5 59.6167C124.187 59.6167 136.136 71.5654 136.136 86.2525C136.136 89.1949 138.521 91.5795 141.463 91.5795C144.404 91.5795 146.79 89.1945 146.79 86.2525C146.79 65.6909 130.062 48.9626 109.5 48.9626C88.9384 48.9626 72.2101 65.6909 72.2101 86.2525C72.2101 89.1945 74.5952 91.5795 77.5371 91.5795Z" fill="#EE685C"/>
<path d="M37.2899 170.038C49.0393 170.038 58.5983 160.479 58.5983 148.729C58.5983 136.98 49.0393 127.421 37.2899 127.421C25.5405 127.421 15.9814 136.98 15.9814 148.729C15.9814 160.479 25.5409 170.038 37.2899 170.038ZM37.2899 138.075C43.1648 138.075 47.9443 142.854 47.9443 148.729C47.9443 154.604 43.1648 159.384 37.2899 159.384C31.415 159.384 26.6355 154.604 26.6355 148.729C26.6355 142.854 31.4154 138.075 37.2899 138.075Z" fill="#EE685C"/>
<path d="M37.2899 174.033C16.7283 174.033 0 190.761 0 211.323C0 214.265 2.38547 216.65 5.327 216.65C8.26853 216.65 10.654 214.265 10.654 211.323C10.654 196.636 22.6028 184.687 37.2899 184.687C51.977 184.687 63.9258 196.636 63.9258 211.323C63.9258 214.265 66.3112 216.65 69.2528 216.65C72.1943 216.65 74.5798 214.265 74.5798 211.323C74.5802 190.761 57.8519 174.033 37.2899 174.033Z" fill="#EE685C"/>
<path d="M181.709 170.038C193.459 170.038 203.018 160.479 203.018 148.729C203.018 136.98 193.459 127.421 181.709 127.421C169.96 127.421 160.401 136.98 160.401 148.729C160.401 160.479 169.96 170.038 181.709 170.038ZM181.709 138.075C187.584 138.075 192.364 142.854 192.364 148.729C192.364 154.604 187.584 159.384 181.709 159.384C175.834 159.384 171.055 154.604 171.055 148.729C171.055 142.854 175.835 138.075 181.709 138.075Z" fill="#EE685C"/>
<path d="M181.71 174.033C161.148 174.033 144.42 190.761 144.42 211.323C144.42 214.265 146.806 216.65 149.747 216.65C152.689 216.65 155.074 214.265 155.074 211.323C155.074 196.636 167.023 184.687 181.71 184.687C196.397 184.687 208.346 196.636 208.346 211.323C208.346 214.265 210.731 216.65 213.673 216.65C216.615 216.65 219 214.265 219 211.323C219 190.761 202.271 174.033 181.71 174.033Z" fill="#EE685C"/>
<path d="M142.612 145.773L114.827 129.731V97.6468C114.827 94.7044 112.442 92.3198 109.5 92.3198C106.558 92.3198 104.173 94.7049 104.173 97.6468V129.731L76.3882 145.773C73.8402 147.243 72.9672 150.502 74.4386 153.05C75.91 155.598 79.1685 156.471 81.7157 154.999L109.5 138.957L137.285 154.999C138.124 155.483 139.039 155.713 139.943 155.713C141.784 155.713 143.575 154.758 144.562 153.05C146.033 150.501 145.16 147.243 142.612 145.773Z" fill="#D9CFCB"/>
</svg>
