<svg width="247" height="240" viewBox="0 0 247 240" fill="none" xmlns="http://www.w3.org/2000/svg">
<g clip-path="url(#clip0_53_88)">
<path d="M117.971 140.563L77.2163 236.17L67.4781 218.987L94.46 123.97L117.971 140.563Z" fill="white"/>
<path d="M71.3303 106.131L24.8789 215.106L59.7165 205.297L67.4781 218.987L104.991 130.978L71.3303 106.131Z" fill="#D9CFCB"/>
<path d="M48.0236 77.1668C48.0236 117.67 81.8152 150.504 123.5 150.504V3.82959C81.8157 3.82959 48.0236 36.6636 48.0236 77.1668Z" fill="#D9CFCB"/>
<path d="M123.5 19.1489V135.186C156.425 135.186 183.21 109.159 183.21 77.1679C183.21 45.1767 156.425 19.1489 123.5 19.1489Z" fill="white"/>
<path d="M123.5 19.1489C90.5755 19.1489 63.7891 45.1762 63.7891 77.1674C63.7891 109.159 90.5755 135.186 123.5 135.186C150.628 135.186 172.7 109.159 172.7 77.1679C172.7 45.1767 150.628 19.1489 123.5 19.1489Z" fill="white"/>
<path d="M123.5 34.468L136.836 59.3314L165.293 63.972L145.078 83.9792L149.33 111.71L123.5 99.2121L97.67 111.71L101.922 83.9792L81.7067 63.972L110.164 59.3314L123.5 34.468Z" fill="white"/>
<path d="M225.763 213.639L193.063 136.932C192.23 134.979 189.925 134.05 187.914 134.86C185.902 135.669 184.947 137.91 185.78 139.863L215.342 209.208L188.378 201.616C186.608 201.118 184.718 201.879 183.828 203.447L170.286 227.341L138.566 152.934C175.176 146.074 202.916 114.711 202.916 77.1664C202.917 34.6171 167.291 0 123.5 0C79.7085 0 44.0822 34.6171 44.0822 77.1669C44.0822 94.4014 49.9282 110.333 59.7937 123.191L21.2362 213.639C20.6563 215 20.9303 216.563 21.941 217.659C22.9512 218.756 24.52 219.193 25.975 218.783L57.7868 209.827L73.7631 238.017C74.4588 239.244 75.785 240 77.2149 240C77.2872 240 77.3606 239.998 77.4334 239.994C78.9463 239.912 80.2773 238.995 80.8572 237.635L111.409 165.966C112.242 164.012 111.287 161.772 109.276 160.962C107.265 160.153 104.959 161.081 104.126 163.035L76.7117 227.343L63.1702 203.449C62.2811 201.879 60.3895 201.119 58.6204 201.618L31.6565 209.21L65.4993 129.821C80.0028 144.896 100.636 154.335 123.499 154.335C125.858 154.335 128.193 154.228 130.502 154.031L166.142 237.637C166.722 238.997 168.053 239.913 169.565 239.995C169.639 239.999 169.711 240.001 169.784 240.001C171.214 240.001 172.54 239.246 173.235 238.019L189.212 209.828L221.024 218.785C222.481 219.196 224.047 218.758 225.058 217.661C226.07 216.562 226.343 215 225.763 213.639ZM51.9654 77.1669C51.9654 38.8405 84.0556 7.65936 123.5 7.65936C162.944 7.65936 195.034 38.8405 195.034 77.1669C195.034 115.493 162.943 146.674 123.5 146.674C84.0556 146.674 51.9654 115.493 51.9654 77.1669Z" fill="#EE685C"/>
<path d="M155.144 68.2123C154.825 67.3174 153.985 66.6589 152.965 66.5032L134.302 63.6535L125.557 48.3843C125.079 47.55 124.132 47.0271 123.098 47.0271C122.064 47.0271 121.116 47.5503 120.638 48.3843L111.893 63.6535L93.2302 66.5032C92.2108 66.6586 91.3709 67.3174 91.0511 68.2123C90.7317 69.1071 90.9853 70.0887 91.7097 70.7602L104.967 83.0469L102.179 100.078C102.026 101.008 102.455 101.938 103.292 102.491C104.128 103.044 105.233 103.127 106.159 102.709L123.098 95.0327L140.037 102.708C140.429 102.886 140.852 102.973 141.273 102.973C141.849 102.973 142.421 102.81 142.904 102.491C143.74 101.938 144.169 101.008 144.017 100.078L141.229 83.0469L154.486 70.7599C155.21 70.0887 155.464 69.1071 155.144 68.2123ZM136.302 80.4078C135.693 80.9727 135.41 81.7647 135.538 82.5474L137.746 96.0316L124.334 89.9544C123.556 89.6013 122.64 89.6013 121.861 89.9544L108.449 96.0316L110.657 82.5474C110.785 81.7644 110.502 80.9724 109.892 80.4078L99.3955 70.6793L114.172 68.4229C115.03 68.292 115.77 67.8024 116.172 67.1006L123.098 55.011L130.022 67.1009C130.424 67.8027 131.165 68.2923 132.022 68.4232L146.799 70.6796L136.302 80.4078Z" fill="#EE685C"/>
<path d="M183.207 81.0297C181.048 80.7494 179.067 82.226 178.782 84.3232C175.126 111.136 151.36 131.355 123.5 131.355C92.7488 131.355 67.731 107.047 67.731 77.1668C67.731 47.2873 92.7488 22.9785 123.5 22.9785C151.36 22.9785 175.125 43.1975 178.781 70.0104C179.067 72.1076 181.052 73.5855 183.206 73.3038C185.364 73.0259 186.882 71.1007 186.595 69.0045C182.423 38.3989 155.298 15.3191 123.5 15.3191C88.4022 15.3191 59.8482 43.0639 59.8482 77.1668C59.8482 111.27 88.4017 139.015 123.5 139.015C155.298 139.015 182.423 115.935 186.596 85.3296C186.882 83.2329 185.364 81.3077 183.207 81.0297Z" fill="#EE685C"/>
</g>
<defs>
<clipPath id="clip0_53_88">
<rect width="247" height="240" fill="white"/>
</clipPath>
</defs>
</svg>
