<svg width="273" height="255" viewBox="0 0 273 255" fill="none" xmlns="http://www.w3.org/2000/svg">
<path d="M110.012 122.484L95.1904 114.526C91.0981 112.328 89.6873 107.447 92.0398 103.625C94.3928 99.8024 99.6182 98.4846 103.71 100.682L118.532 108.64" fill="#9F877E" fill-opacity="0.4"/>
<path d="M154.476 147.528L169.298 155.486C173.39 157.684 178.616 156.366 180.968 152.543C183.321 148.721 181.91 143.839 177.818 141.642L162.996 133.684" fill="#9F877E" fill-opacity="0.4"/>
<path d="M162.976 122.391L177.765 114.381C181.849 112.169 183.24 107.283 180.872 103.469C178.503 99.655 173.273 98.3551 169.189 100.567L154.4 108.577" fill="#9F877E" fill-opacity="0.4"/>
<path d="M118.608 147.591L103.819 155.601C99.7349 157.813 94.5042 156.513 92.1363 152.699C89.7683 148.885 91.1589 143.999 95.2427 141.787L110.032 133.777" fill="#9F877E" fill-opacity="0.4"/>
<path d="M204.096 93.6809C203.879 93.3033 203.601 92.9776 203.282 92.7027C203.197 92.3172 203.048 91.9377 202.825 91.5791C201.715 89.7911 199.263 89.181 197.349 90.2189L181.755 98.6653C180.319 97.4854 178.607 96.6143 176.704 96.1417C173.463 95.3354 170.081 95.7582 167.18 97.33L153.424 104.781C152.034 103.874 150.558 103.076 149.009 102.4L148.979 87.5574C148.969 82.3991 145.375 78.0183 140.409 76.4609L140.383 63.4828C150.281 64.0068 160 66.5254 168.708 70.8544C170.661 71.8236 173.088 71.1338 174.128 69.3085C175.168 67.4841 174.427 65.2175 172.473 64.2458C161.474 58.7788 149.041 55.8906 136.505 55.8906C136.46 55.8906 136.414 55.8906 136.368 55.8906C136.365 55.8906 136.363 55.8906 136.36 55.8906C115.882 55.926 96.645 63.4091 82.192 76.96C67.7396 90.5103 59.8013 108.507 59.8397 127.635C59.8706 142.896 64.9701 157.455 74.5875 169.736C75.3724 170.739 76.5897 171.269 77.8246 171.269C78.6457 171.269 79.4738 171.034 80.1872 170.547C81.9734 169.327 82.3621 166.985 81.0553 165.317C80.4208 164.506 79.815 163.682 79.2248 162.85L91.2528 156.335C92.6892 157.515 94.4013 158.386 96.3038 158.859C97.3782 159.126 98.468 159.258 99.551 159.258C101.734 159.258 103.889 158.721 105.828 157.671L119.584 150.22C120.975 151.126 122.45 151.925 123.999 152.601L124.029 167.443C124.039 172.602 127.633 176.983 132.599 178.54L132.626 191.518C117.872 190.737 103.706 185.518 92.3618 176.613C90.6684 175.284 88.1404 175.489 86.7163 177.071C85.2926 178.653 85.5118 181.014 87.2057 182.343C100.983 193.159 118.482 199.111 136.502 199.11C136.547 199.11 136.594 199.11 136.639 199.11C136.642 199.11 136.645 199.11 136.647 199.11C157.125 199.074 176.362 191.591 190.815 178.04C205.268 164.49 213.206 146.493 213.168 127.366C213.144 115.617 210.008 103.968 204.096 93.6809ZM205.155 127.379C205.175 137.541 202.681 147.346 197.948 156.175L185.873 149.691C186.249 147.938 186.193 146.116 185.679 144.339C184.805 141.314 182.723 138.79 179.815 137.229L166.043 129.834C166.113 129.047 166.157 128.253 166.155 127.448C166.154 126.644 166.107 125.85 166.033 125.063L179.775 117.619C182.677 116.048 184.749 113.516 185.61 110.488C186.117 108.71 186.166 106.888 185.783 105.136L197.811 98.621C202.597 107.479 205.135 117.386 205.155 127.379ZM95.513 105.491C96.1177 104.508 97.0956 103.804 98.2665 103.509C99.4379 103.212 100.662 103.362 101.713 103.927L113.381 110.192C111.489 112.392 109.952 114.867 108.844 117.541L97.1862 111.282C96.1348 110.717 95.3819 109.804 95.0657 108.71C94.75 107.616 94.9089 106.473 95.513 105.491ZM164.164 137.459L175.821 143.719C176.873 144.283 177.626 145.197 177.942 146.29C178.259 147.384 178.1 148.527 177.496 149.509C176.891 150.491 175.912 151.196 174.742 151.491C173.571 151.786 172.346 151.638 171.295 151.073L159.627 144.808C161.519 142.608 163.056 140.133 164.164 137.459ZM171.2 103.805C172.249 103.236 173.473 103.084 174.645 103.375C175.816 103.666 176.797 104.365 177.405 105.345L177.406 105.347L177.408 105.348C178.015 106.328 178.178 107.469 177.867 108.564C177.555 109.659 176.805 110.575 175.756 111.143L164.121 117.445C163.003 114.776 161.455 112.306 159.554 110.112L171.2 103.805ZM140.99 100.121C139.527 99.9124 138.03 99.8043 136.506 99.8043C136.503 99.8043 136.451 99.8043 136.449 99.8043C134.905 99.8068 133.389 99.9209 131.908 100.137L131.883 87.5863C131.881 86.4532 132.351 85.3874 133.208 84.5845C134.064 83.7817 135.203 83.3384 136.416 83.3364C136.419 83.3364 136.422 83.3364 136.425 83.3364C137.634 83.3364 138.773 83.7757 139.63 84.5736C140.489 85.3735 140.964 86.4373 140.966 87.5703L140.99 100.121ZM87.8696 82.2422C99.8645 70.9964 115.54 64.4226 132.369 63.4938L132.395 76.4689C130.581 77.0406 128.92 77.9984 127.53 79.3013C125.162 81.5206 123.863 84.4675 123.869 87.5997L123.899 102.439C122.351 103.122 120.878 103.926 119.491 104.838L105.708 97.4371C102.801 95.8748 99.4161 95.4639 96.1785 96.2822C94.2776 96.7613 92.5698 97.6388 91.1381 98.8232L79.0691 92.3426C81.6029 88.7467 84.5419 85.362 87.8696 82.2422ZM67.8537 127.62C67.8334 117.459 70.3272 107.654 75.061 98.8247L87.1354 105.308C86.7595 107.061 86.816 108.884 87.3295 110.66C88.2034 113.685 90.2861 116.209 93.1931 117.77L106.966 125.165C106.895 125.953 106.852 126.747 106.853 127.551C106.855 128.355 106.901 129.149 106.975 129.936L93.2325 137.38C88.4556 139.968 86.1911 145.065 87.2303 149.86L75.1927 156.381C70.3912 147.522 67.874 137.746 67.8537 127.62ZM101.809 151.195C100.76 151.763 99.536 151.916 98.3635 151.625C97.1921 151.334 96.2115 150.634 95.6031 149.655L95.6021 149.653L95.601 149.651C94.3469 147.628 95.0875 145.028 97.2529 143.856L108.887 137.555C110.006 140.224 111.553 142.693 113.455 144.887L101.809 151.195ZM132.018 154.878C133.481 155.087 134.979 155.195 136.503 155.195C136.506 155.195 136.557 155.195 136.559 155.195C138.104 155.193 139.62 155.078 141.1 154.862L141.125 167.413C141.127 168.546 140.657 169.612 139.801 170.415C138.944 171.218 137.806 171.661 136.592 171.663C136.589 171.663 136.586 171.663 136.583 171.663C135.374 171.663 134.235 171.224 133.378 170.426C132.519 169.626 132.044 168.562 132.042 167.429L132.018 154.878ZM185.139 172.757C173.145 184.003 157.469 190.577 140.64 191.506L140.614 178.531C142.427 177.959 144.089 177.002 145.479 175.698C147.846 173.479 149.146 170.532 149.14 167.4L149.11 152.56C150.658 151.878 152.131 151.073 153.519 150.162L167.301 157.562C169.231 158.599 171.371 159.128 173.538 159.128C174.636 159.128 175.742 158.992 176.831 158.717C178.731 158.238 180.439 157.361 181.871 156.176L193.939 162.656C191.406 166.253 188.467 169.637 185.139 172.757Z" fill="#EE685C" fill-opacity="0.53"/>
<path d="M250.217 175.031L227.984 163.093C226.426 162.256 224.693 161.749 222.917 161.591C227.755 150.894 230.288 139.296 230.264 127.335C230.24 115.375 227.66 103.786 222.778 93.1057C224.555 92.9409 226.285 92.4284 227.84 91.5857L250.025 79.5703C256.013 76.326 258.06 69.1362 254.588 63.5427C252.35 59.9368 248.185 57.6971 243.719 57.6971C241.517 57.6971 239.342 58.2445 237.43 59.2804L215.246 71.2953C213.632 72.1688 212.308 73.3313 211.298 74.6695C208.692 71.4646 205.84 68.4021 202.738 65.511C187.714 51.5054 168.498 42.8444 147.74 40.5429C148.47 39.0538 148.878 37.4003 148.874 35.6576L148.826 11.7046C148.813 5.2509 143.181 0 136.248 0C129.325 0.0119531 123.703 5.28277 123.716 11.7489L123.764 35.7019C123.768 37.4431 124.183 39.0946 124.919 40.5813C104.199 42.9515 85.0436 51.6598 70.0803 65.6888C66.9675 68.6073 64.1069 71.6982 61.4985 74.932C60.4827 73.5972 59.1534 72.4398 57.5368 71.5722L35.3044 59.6345C33.4019 58.613 31.2414 58.0732 29.0558 58.0732C24.5705 58.0732 20.3966 60.3278 18.1625 63.9571C16.4914 66.6724 16.052 69.833 16.9265 72.8577C17.801 75.8823 19.8836 78.4074 22.7907 79.9682L45.023 91.9059C46.5816 92.7426 48.3134 93.2501 50.0906 93.4085C45.2523 104.105 42.7196 115.703 42.7436 127.664C42.7676 139.624 45.3478 151.213 50.2292 161.893C48.4526 162.058 46.7224 162.571 45.1665 163.413L22.9831 175.43C20.082 177.001 18.0094 179.533 17.1478 182.56C16.2861 185.587 16.7372 188.746 18.42 191.457C20.6584 195.063 24.8232 197.302 29.2893 197.302C31.4914 197.302 33.6658 196.755 35.5784 195.72L57.7623 183.704C59.3758 182.831 60.7003 181.668 61.7101 180.33C64.3159 183.535 67.168 186.597 70.2696 189.489C85.2937 203.494 104.51 212.155 125.268 214.457C124.538 215.946 124.129 217.599 124.133 219.342L124.181 243.295C124.194 249.749 129.826 255 136.735 255C136.738 255 136.757 255 136.759 255C143.682 254.988 149.304 249.717 149.291 243.251L149.243 219.298C149.239 217.557 148.824 215.905 148.087 214.419C168.807 212.049 187.963 203.341 202.926 189.311C206.04 186.392 208.901 183.3 211.51 180.066C212.544 181.422 213.877 182.573 215.47 183.428L237.701 195.365C239.604 196.387 241.764 196.927 243.95 196.927C248.435 196.927 252.609 194.672 254.843 191.043C258.295 185.437 256.219 178.254 250.217 175.031ZM219.265 77.7709L241.449 65.756C242.143 65.381 242.927 65.1828 243.719 65.1828C245.337 65.1828 246.845 65.9931 247.655 67.297C248.912 69.321 248.171 71.9218 246.005 73.0947L223.821 85.1101C223.118 85.4906 222.355 85.6828 221.552 85.6828C220.111 85.6828 218.758 85.0369 217.907 83.9745C217.735 83.6951 217.56 83.4177 217.384 83.1398C216.47 81.191 217.249 78.8631 219.265 77.7709ZM131.778 35.6885L131.73 11.7355C131.728 10.6024 132.198 9.53609 133.055 8.73324C133.911 7.93039 135.05 7.48712 136.272 7.48513C138.771 7.48513 140.809 9.38418 140.813 11.7185L140.861 35.6715C140.863 36.8046 140.393 37.8709 139.537 38.6738C138.681 39.4766 137.542 39.9199 136.329 39.9219C136.325 39.9219 136.323 39.9219 136.32 39.9219C133.82 39.9219 131.783 38.0223 131.778 35.6885ZM51.2722 85.9827C50.475 85.9827 49.7163 85.7924 49.0178 85.4174L26.7854 73.4797C25.7339 72.9149 24.9805 72.0015 24.6643 70.9078C24.3481 69.8141 24.507 68.6706 25.1112 67.6884C25.9195 66.3751 27.4316 65.5593 29.0563 65.5593C29.854 65.5593 30.6127 65.7495 31.3112 66.1246L53.5436 78.0622C55.5634 79.1465 56.3515 81.4704 55.4471 83.4217C55.2696 83.7051 55.0915 83.988 54.9177 84.2734C54.0662 85.3367 52.7156 85.9827 51.2722 85.9827ZM53.743 177.229L31.5597 189.244C30.8671 189.62 30.0822 189.817 29.2899 189.817C27.6716 189.817 26.1626 189.006 25.3532 187.703C24.7448 186.722 24.5811 185.579 24.8931 184.484C25.2045 183.389 25.9541 182.474 27.0035 181.905L49.1874 169.89C49.8805 169.514 50.6649 169.317 51.4572 169.317C52.8979 169.317 54.2485 169.962 55.0995 171.024C55.2723 171.304 55.4482 171.582 55.6242 171.861C56.5375 173.809 55.7585 176.137 53.743 177.229ZM136.746 247.514L136.736 251.257V247.514C134.237 247.514 132.201 245.615 132.196 243.281L132.148 219.328C132.146 218.195 132.616 217.129 133.472 216.326C134.329 215.523 135.468 215.08 136.69 215.078C139.189 215.078 141.226 216.977 141.23 219.311L141.278 243.264C141.283 245.603 139.249 247.51 136.746 247.514ZM197.25 184.027C181.086 199.184 159.569 207.552 136.666 207.593H136.5C89.3103 207.593 50.8467 171.731 50.7576 127.651C50.7294 113.638 54.5295 100.169 61.6963 88.2836C61.8605 88.056 62.0173 87.8229 62.165 87.5834C62.2967 87.3687 62.4182 87.1511 62.5339 86.9324C66.1613 81.184 70.5848 75.822 75.7584 70.9715C91.9235 55.815 113.439 47.4464 136.343 47.406H136.508C183.698 47.406 222.162 83.2678 222.25 127.348C222.279 141.36 218.478 154.83 211.311 166.715C211.147 166.943 210.99 167.176 210.842 167.415C210.711 167.629 210.589 167.847 210.473 168.067C206.846 173.815 202.423 179.177 197.25 184.027ZM247.897 187.312C247.088 188.624 245.577 189.44 243.952 189.44C243.166 189.44 242.386 189.245 241.697 188.875L219.465 176.937C218.414 176.373 217.661 175.459 217.344 174.365C217.073 173.428 217.153 172.454 217.562 171.576C217.739 171.294 217.917 171.012 218.09 170.728C218.941 169.664 220.292 169.017 221.737 169.017C222.523 169.017 223.303 169.213 223.991 169.583L246.224 181.52C248.394 182.686 249.145 185.284 247.897 187.312Z" fill="#EE685C"/>
<ellipse cx="136.055" cy="127.5" rx="20.4528" ry="18.9527" fill="#FFFEFE"/>
</svg>
